# xmcd
#
# Track frame offsets:
#	150
#	4377
#	37089
#	62100
#	81461
#	103597
#	127515
#	160418
#	185577
#	209569
#	236765
#	261528
#	288542
#
# Disc length: 4141 seconds
#
# Revision: 1
# Processed by: cddbd v1.4PL0 Copyright (c) Steve Scherf et al.
# Submitted via: CDmax 2.0
#
DISCID=c6102b0d
DTITLE=Mixed by Steve Lawler - Lights Out Disk 01
DYEAR=2003
DGENRE=Dance
TTITLE0=Lights Out - Intro Part 1 feat. Helena Barber
TTITLE1=Shmuel and Baranes - Spanish Tale
TTITLE2=Sam-u-l - Generate
TTITLE3=Ultra Fine - Kassso
TTITLE4=Frank 'O Moiraghi and Mr Mike Present - Harlem Shuffle
TTITLE5=Paranoid Jack - Dirty Fingernails
TTITLE6=The Scumfrog - Watersong
TTITLE7=J and S Productions - Sunrise
TTITLE8=Steve Lawler - Andante
TTITLE9=Swain and Snell - Hello
TTITLE10=Cevin Fisher - Lets Get It Together (Somebody)
TTITLE11=Thick Dick - Orgasm
TTITLE12=Angelo Kortez feat. Alan T - House Muzik
EXTD=
EXTT0=
EXTT1=
EXTT2=
EXTT3=
EXTT4=
EXTT5=
EXTT6=
EXTT7=
EXTT8=
EXTT9=
EXTT10=
EXTT11=
EXTT12=
PLAYORDER=
